<?xml version="1.0" encoding="UTF-8" standalone="no"?><svg xmlns="http://www.w3.org/2000/svg" xmlns:xlink="http://www.w3.org/1999/xlink" contentStyleType="text/css" height="201px" preserveAspectRatio="none" style="width:163px;height:201px;background:#FFFFFF;" version="1.1" viewBox="0 0 163 201" width="163px" zoomAndPan="magnify"><defs/><g><!--MD5=[9a85527930e91b8f94780fd0866f9816]
entity issuer--><g id="elem_issuer"><rect fill="#F1F1F1" height="36.2969" rx="2.5" ry="2.5" style="stroke:#181818;stroke-width:0.5;" width="62" x="51.5" y="7"/><text fill="#000000" font-family="sans-serif" font-size="14" lengthAdjust="spacing" textLength="42" x="61.5" y="29.9951">Issuer</text></g><!--MD5=[f152b445e5bcee5e5394952cb1476aeb]
entity alice--><g id="elem_alice"><ellipse cx="23.5" cy="128.5" fill="#F1F1F1" rx="8" ry="8" style="stroke:#181818;stroke-width:0.5;"/><path d="M23.5,136.5 L23.5,163.5 M10.5,144.5 L36.5,144.5 M23.5,163.5 L10.5,178.5 M23.5,163.5 L36.5,178.5 " fill="none" style="stroke:#181818;stroke-width:0.5;"/><text fill="#000000" font-family="sans-serif" font-size="14" lengthAdjust="spacing" textLength="35" x="6" y="192.9951">Alice</text></g><!--MD5=[8e36e8bcb951c7385246966ef326582c]
entity bob--><g id="elem_bob"><ellipse cx="142.5" cy="128.5" fill="#F1F1F1" rx="8" ry="8" style="stroke:#181818;stroke-width:0.5;"/><path d="M142.5,136.5 L142.5,163.5 M129.5,144.5 L155.5,144.5 M142.5,163.5 L129.5,178.5 M142.5,163.5 L155.5,178.5 " fill="none" style="stroke:#181818;stroke-width:0.5;"/><text fill="#000000" font-family="sans-serif" font-size="14" lengthAdjust="spacing" textLength="28" x="128.5" y="192.9951">Bob</text></g><!--MD5=[8f17628701a9ea3d8fcdcee816ba6ac4]
link issuer to alice--><g id="link_issuer_alice"><path d="M69.05,47.76 C64.47,55.58 59.51,64.55 55.5,73 C49.19,86.31 43.18,101.23 38.11,114.76 " fill="none" id="issuer-alice" style="stroke:#181818;stroke-width:1.0;"/><polygon fill="#181818" points="36.29,119.67,43.1696,112.6222,38.0284,114.9819,35.6687,109.8408,36.29,119.67" style="stroke:#181818;stroke-width:1.0;"/><polygon fill="#181818" points="71.83,43.06,63.8058,48.7707,69.2849,47.3638,70.6919,52.8429,71.83,43.06" style="stroke:#181818;stroke-width:1.0;"/><text fill="#000000" font-family="sans-serif" font-size="13" lengthAdjust="spacing" textLength="30" x="56.5" y="86.0669">mint</text></g><!--MD5=[927f4ae99ec7566f09adbbdd1f7ff870]
link alice to bob--><g id="link_alice_bob"><path d="M41.06,158 C62.97,158 100.3,158 123.06,158 " fill="none" id="alice-to-bob" style="stroke:#181818;stroke-width:1.0;"/><polygon fill="#181818" points="128.23,158,119.23,154,123.23,158,119.23,162,128.23,158" style="stroke:#181818;stroke-width:1.0;"/><text fill="#000000" font-family="sans-serif" font-size="13" lengthAdjust="spacing" textLength="51" x="59.25" y="151.0669">transfer</text></g><!--MD5=[d900268e8f89a8cc32f5af8a5ae07d23]
link issuer to bob--><g id="link_issuer_bob"><path d="M92.48,47.79 C101.69,67.91 115.54,98.15 126.34,121.71 " fill="none" id="issuer-bob" style="stroke:#181818;stroke-width:1.0;"/><polygon fill="#181818" points="128.45,126.33,128.33,116.4819,126.3638,121.786,121.0596,119.8198,128.45,126.33" style="stroke:#181818;stroke-width:1.0;"/><polygon fill="#181818" points="90.34,43.13,90.46,52.9781,92.4262,47.674,97.7304,49.6402,90.34,43.13" style="stroke:#181818;stroke-width:1.0;"/><text fill="#000000" font-family="sans-serif" font-size="13" lengthAdjust="spacing" textLength="40" x="111.5" y="86.0669">renew</text></g><!--MD5=[592a3b6c3fa43f737b7853bbfe4d786d]
@startuml

rectangle Issuer as issuer
actor Alice as alice
actor Bob as bob
issuer <- -> alice: mint
alice -> bob: transfer
issuer <- -> bob: renew

@enduml

PlantUML version 1.2022.6(Tue Jun 21 19:34:49 CEST 2022)
(GPL source distribution)
Java Runtime: OpenJDK Runtime Environment
JVM: OpenJDK 64-Bit Server VM
Default Encoding: UTF-8
Language: en
Country: US
--></g></svg>