<?xml version="1.0" encoding="UTF-8" standalone="no"?><svg xmlns="http://www.w3.org/2000/svg" xmlns:xlink="http://www.w3.org/1999/xlink" contentStyleType="text/css" height="201px" preserveAspectRatio="none" style="width:316px;height:201px;background:#FFFFFF;" version="1.1" viewBox="0 0 316 201" width="316px" zoomAndPan="magnify"><defs/><g><!--MD5=[9a85527930e91b8f94780fd0866f9816]
entity issuer--><g id="elem_issuer"><rect fill="#F1F1F1" height="36.2969" rx="2.5" ry="2.5" style="stroke:#181818;stroke-width:0.5;" width="62" x="111.5" y="7"/><text fill="#000000" font-family="sans-serif" font-size="14" lengthAdjust="spacing" textLength="42" x="121.5" y="29.9951">Issuer</text></g><!--MD5=[f152b445e5bcee5e5394952cb1476aeb]
entity alice--><g id="elem_alice"><ellipse cx="23.5" cy="128.5" fill="#F1F1F1" rx="8" ry="8" style="stroke:#181818;stroke-width:0.5;"/><path d="M23.5,136.5 L23.5,163.5 M10.5,144.5 L36.5,144.5 M23.5,163.5 L10.5,178.5 M23.5,163.5 L36.5,178.5 " fill="none" style="stroke:#181818;stroke-width:0.5;"/><text fill="#000000" font-family="sans-serif" font-size="14" lengthAdjust="spacing" textLength="35" x="6" y="192.9951">Alice</text></g><!--MD5=[8e36e8bcb951c7385246966ef326582c]
entity bob--><g id="elem_bob"><ellipse cx="142.5" cy="128.5" fill="#F1F1F1" rx="8" ry="8" style="stroke:#181818;stroke-width:0.5;"/><path d="M142.5,136.5 L142.5,163.5 M129.5,144.5 L155.5,144.5 M142.5,163.5 L129.5,178.5 M142.5,163.5 L155.5,178.5 " fill="none" style="stroke:#181818;stroke-width:0.5;"/><text fill="#000000" font-family="sans-serif" font-size="14" lengthAdjust="spacing" textLength="28" x="128.5" y="192.9951">Bob</text></g><!--MD5=[4324d3f9cafeb4dcda6c99ba6433e69d]
entity charlene--><g id="elem_charlene"><ellipse cx="276.5" cy="128.5" fill="#F1F1F1" rx="8" ry="8" style="stroke:#181818;stroke-width:0.5;"/><path d="M276.5,136.5 L276.5,163.5 M263.5,144.5 L289.5,144.5 M276.5,163.5 L263.5,178.5 M276.5,163.5 L289.5,178.5 " fill="none" style="stroke:#181818;stroke-width:0.5;"/><text fill="#000000" font-family="sans-serif" font-size="14" lengthAdjust="spacing" textLength="65" x="244" y="192.9951">Charlene</text></g><!--MD5=[8f17628701a9ea3d8fcdcee816ba6ac4]
link issuer to alice--><g id="link_issuer_alice"><path d="M123.45,46.97 C102,70.59 67.23,108.86 44.87,133.48 " fill="none" id="issuer-alice" style="stroke:#181818;stroke-width:1.0;"/><polygon fill="#181818" points="41.39,137.3,50.4,133.3226,44.7498,133.5971,44.4753,127.9469,41.39,137.3" style="stroke:#181818;stroke-width:1.0;"/><polygon fill="#181818" points="126.94,43.13,117.93,47.1074,123.5802,46.8329,123.8547,52.4831,126.94,43.13" style="stroke:#181818;stroke-width:1.0;"/><text fill="#000000" font-family="sans-serif" font-size="13" lengthAdjust="spacing" textLength="30" x="98.5" y="86.0669">mint</text></g><!--MD5=[927f4ae99ec7566f09adbbdd1f7ff870]
link alice to bob--><g id="link_alice_bob"><path d="M41.06,158 C62.97,158 100.3,158 123.06,158 " fill="none" id="alice-to-bob" style="stroke:#181818;stroke-width:1.0;"/><polygon fill="#181818" points="128.23,158,119.23,154,123.23,158,119.23,162,128.23,158" style="stroke:#181818;stroke-width:1.0;"/><text fill="#000000" font-family="sans-serif" font-size="13" lengthAdjust="spacing" textLength="51" x="59.25" y="151.0669">transfer</text></g><!--MD5=[d900268e8f89a8cc32f5af8a5ae07d23]
link issuer to bob--><g id="link_issuer_bob"><path d="M142.5,48.38 C142.5,66.49 142.5,92.49 142.5,114.52 " fill="none" id="issuer-bob" style="stroke:#181818;stroke-width:1.0;"/><polygon fill="#181818" points="142.5,119.74,146.5,110.74,142.5,114.74,138.5,110.74,142.5,119.74" style="stroke:#181818;stroke-width:1.0;"/><polygon fill="#181818" points="142.5,43.13,138.5,52.13,142.5,48.13,146.5,52.13,142.5,43.13" style="stroke:#181818;stroke-width:1.0;"/><text fill="#000000" font-family="sans-serif" font-size="13" lengthAdjust="spacing" textLength="40" x="143.5" y="86.0669">renew</text></g><!--MD5=[24c42f48b2c7f793a178cc1890f3b02a]
link bob to charlene--><g id="link_bob_charlene"><path d="M156.84,158 C176.15,158 211.21,158 238.41,158 " fill="none" id="bob-to-charlene" style="stroke:#181818;stroke-width:1.0;"/><polygon fill="#181818" points="243.74,158,234.74,154,238.74,158,234.74,162,243.74,158" style="stroke:#181818;stroke-width:1.0;"/><text fill="#000000" font-family="sans-serif" font-size="13" lengthAdjust="spacing" textLength="51" x="174.75" y="151.0669">transfer</text></g><!--MD5=[220888652f2acea92c910874a8d0559d]
link issuer to charlene--><g id="link_issuer_charlene"><path d="M165.26,47.11 C173.85,55.16 183.68,64.45 192.5,73 C208.2,88.22 225.3,105.24 239.95,119.96 " fill="none" id="issuer-charlene" style="stroke:#181818;stroke-width:1.0;"/><polygon fill="#181818" points="243.62,123.65,240.1216,114.4434,240.0988,120.1002,234.4419,120.0774,243.62,123.65" style="stroke:#181818;stroke-width:1.0;"/><polygon fill="#181818" points="161.15,43.27,164.999,52.3356,164.8048,46.6821,170.4583,46.4879,161.15,43.27" style="stroke:#181818;stroke-width:1.0;"/><text fill="#000000" font-family="sans-serif" font-size="13" lengthAdjust="spacing" textLength="50" x="209.5" y="86.0669">redeem</text></g><!--MD5=[f36bbd1f0e979b5ca99a00aa0d20b5f6]
@startuml
' skinparam backgroundColor transparent

rectangle Issuer as issuer
actor Alice as alice
actor Bob as bob
actor Charlene as charlene

issuer <- -> alice: mint
alice -> bob: transfer
issuer <- -> bob: renew
bob -> charlene: transfer
issuer <- -> charlene: redeem

@enduml

@startuml

rectangle Issuer as issuer
actor Alice as alice
actor Bob as bob
actor Charlene as charlene

issuer <- -> alice: mint
alice -> bob: transfer
issuer <- -> bob: renew
bob -> charlene: transfer
issuer <- -> charlene: redeem

@enduml

PlantUML version 1.2022.6(Tue Jun 21 19:34:49 CEST 2022)
(GPL source distribution)
Java Runtime: OpenJDK Runtime Environment
JVM: OpenJDK 64-Bit Server VM
Default Encoding: UTF-8
Language: en
Country: US
--></g></svg>