<?xml version="1.0" encoding="UTF-8" standalone="no"?><svg xmlns="http://www.w3.org/2000/svg" xmlns:xlink="http://www.w3.org/1999/xlink" contentStyleType="text/css" height="1813px" preserveAspectRatio="none" style="width:550px;height:1813px;background:#FFFFFF;" version="1.1" viewBox="0 0 550 1813" width="550px" zoomAndPan="magnify"><defs/><g><rect height="75.3984" style="stroke:#000000;stroke-width:1.5;fill:none;" width="206" x="242.5" y="1326.7422"/><line style="stroke:#181818;stroke-width:0.5;fill:none;stroke-dasharray:5.0,5.0;" x1="118" x2="118" y1="81.2969" y2="1732.3359"/><line style="stroke:#181818;stroke-width:0.5;fill:none;stroke-dasharray:5.0,5.0;" x1="280.5" x2="280.5" y1="81.2969" y2="1732.3359"/><line style="stroke:#181818;stroke-width:0.5;fill:none;stroke-dasharray:5.0,5.0;" x1="421.5" x2="421.5" y1="81.2969" y2="1732.3359"/><text fill="#000000" font-family="sans-serif" font-size="14" lengthAdjust="spacing" textLength="35" x="98" y="77.9951">Alice</text><ellipse cx="118.5" cy="13.5" fill="#E2E2F0" rx="8" ry="8" style="stroke:#181818;stroke-width:0.5;"/><path d="M118.5,21.5 L118.5,48.5 M105.5,29.5 L131.5,29.5 M118.5,48.5 L105.5,63.5 M118.5,48.5 L131.5,63.5 " fill="none" style="stroke:#181818;stroke-width:0.5;"/><text fill="#000000" font-family="sans-serif" font-size="14" lengthAdjust="spacing" textLength="35" x="98" y="1744.3311">Alice</text><ellipse cx="118.5" cy="1756.1328" fill="#E2E2F0" rx="8" ry="8" style="stroke:#181818;stroke-width:0.5;"/><path d="M118.5,1764.1328 L118.5,1791.1328 M105.5,1772.1328 L131.5,1772.1328 M118.5,1791.1328 L105.5,1806.1328 M118.5,1791.1328 L131.5,1806.1328 " fill="none" style="stroke:#181818;stroke-width:0.5;"/><rect fill="#E2E2F0" height="62.8906" rx="2.5" ry="2.5" style="stroke:#181818;stroke-width:0.5;" width="56" x="252.5" y="17.4063"/><text fill="#000000" font-family="sans-serif" font-size="14" lengthAdjust="spacing" textLength="4" x="278.5" y="37.4014"> </text><text fill="#000000" font-family="sans-serif" font-size="14" lengthAdjust="spacing" textLength="42" x="259.5" y="53.6982">Issuer</text><text fill="#000000" font-family="sans-serif" font-size="14" lengthAdjust="spacing" textLength="4" x="278.5" y="69.9951"> </text><rect fill="#E2E2F0" height="62.8906" rx="2.5" ry="2.5" style="stroke:#181818;stroke-width:0.5;" width="56" x="252.5" y="1731.3359"/><text fill="#000000" font-family="sans-serif" font-size="14" lengthAdjust="spacing" textLength="4" x="278.5" y="1751.3311"> </text><text fill="#000000" font-family="sans-serif" font-size="14" lengthAdjust="spacing" textLength="42" x="259.5" y="1767.6279">Issuer</text><text fill="#000000" font-family="sans-serif" font-size="14" lengthAdjust="spacing" textLength="4" x="278.5" y="1783.9248"> </text><text fill="#000000" font-family="sans-serif" font-size="14" lengthAdjust="spacing" textLength="28" x="404.5" y="77.9951">Bob</text><ellipse cx="421.5" cy="13.5" fill="#E2E2F0" rx="8" ry="8" style="stroke:#181818;stroke-width:0.5;"/><path d="M421.5,21.5 L421.5,48.5 M408.5,29.5 L434.5,29.5 M421.5,48.5 L408.5,63.5 M421.5,48.5 L434.5,63.5 " fill="none" style="stroke:#181818;stroke-width:0.5;"/><text fill="#000000" font-family="sans-serif" font-size="14" lengthAdjust="spacing" textLength="28" x="404.5" y="1744.3311">Bob</text><ellipse cx="421.5" cy="1756.1328" fill="#E2E2F0" rx="8" ry="8" style="stroke:#181818;stroke-width:0.5;"/><path d="M421.5,1764.1328 L421.5,1791.1328 M408.5,1772.1328 L434.5,1772.1328 M421.5,1791.1328 L408.5,1806.1328 M421.5,1791.1328 L434.5,1806.1328 " fill="none" style="stroke:#181818;stroke-width:0.5;"/><line style="stroke:#181818;stroke-width:1.0;stroke-dasharray:2.0,2.0;" x1="280.5" x2="322.5" y1="112.4297" y2="112.4297"/><line style="stroke:#181818;stroke-width:1.0;stroke-dasharray:2.0,2.0;" x1="322.5" x2="322.5" y1="112.4297" y2="125.4297"/><line style="stroke:#181818;stroke-width:1.0;stroke-dasharray:2.0,2.0;" x1="281.5" x2="322.5" y1="125.4297" y2="125.4297"/><polygon fill="#181818" points="291.5,121.4297,281.5,125.4297,291.5,129.4297,287.5,125.4297" style="stroke:#181818;stroke-width:1.0;"/><text fill="#000000" font-family="sans-serif" font-size="13" lengthAdjust="spacing" textLength="83" x="287.5" y="107.3638">create CDDC</text><rect fill="#FEFFDD" height="23" style="stroke:#181818;stroke-width:0.5;" width="46" x="285" y="138.4297"/><text fill="#000000" font-family="sans-serif" font-size="13" lengthAdjust="spacing" textLength="38" x="289" y="154.4966">CDDC</text><line style="stroke:#181818;stroke-width:1.0;stroke-dasharray:2.0,2.0;" x1="280.5" x2="322.5" y1="187.6953" y2="187.6953"/><line style="stroke:#181818;stroke-width:1.0;stroke-dasharray:2.0,2.0;" x1="322.5" x2="322.5" y1="187.6953" y2="200.6953"/><line style="stroke:#181818;stroke-width:1.0;stroke-dasharray:2.0,2.0;" x1="281.5" x2="322.5" y1="200.6953" y2="200.6953"/><polygon fill="#181818" points="291.5,196.6953,281.5,200.6953,291.5,204.6953,287.5,200.6953" style="stroke:#181818;stroke-width:1.0;"/><text fill="#000000" font-family="sans-serif" font-size="13" lengthAdjust="spacing" textLength="81" x="287.5" y="182.6294">create MKCs</text><rect fill="#FEFFDD" height="23" style="stroke:#181818;stroke-width:0.5;" width="44" x="285" y="213.6953"/><text fill="#000000" font-family="sans-serif" font-size="13" lengthAdjust="spacing" textLength="36" x="289" y="229.7622">MKCs</text><polygon fill="#181818" points="268.5,258.9609,278.5,262.9609,268.5,266.9609,272.5,262.9609" style="stroke:#181818;stroke-width:1.0;"/><line style="stroke:#181818;stroke-width:1.0;" x1="118.5" x2="274.5" y1="262.9609" y2="262.9609"/><text fill="#000000" font-family="sans-serif" font-size="13" lengthAdjust="spacing" textLength="128" x="125.5" y="257.895">RequestCDDCSerial</text><polygon fill="#181818" points="129.5,288.0938,119.5,292.0938,129.5,296.0938,125.5,292.0938" style="stroke:#181818;stroke-width:1.0;"/><line style="stroke:#181818;stroke-width:1.0;" x1="123.5" x2="279.5" y1="292.0938" y2="292.0938"/><text fill="#000000" font-family="sans-serif" font-size="13" lengthAdjust="spacing" textLength="138" x="135.5" y="287.0278">ResponseCDDCSerial</text><rect fill="#FEFFDD" height="23" style="stroke:#181818;stroke-width:0.5;" width="77" x="123" y="305.0938"/><text fill="#000000" font-family="sans-serif" font-size="13" lengthAdjust="spacing" textLength="69" x="127" y="321.1606">CDD serial</text><polygon fill="#181818" points="268.5,350.3594,278.5,354.3594,268.5,358.3594,272.5,354.3594" style="stroke:#181818;stroke-width:1.0;"/><line style="stroke:#181818;stroke-width:1.0;" x1="118.5" x2="274.5" y1="354.3594" y2="354.3594"/><text fill="#000000" font-family="sans-serif" font-size="13" lengthAdjust="spacing" textLength="91" x="125.5" y="349.2935">RequestCDDC</text><polygon fill="#181818" points="129.5,379.4922,119.5,383.4922,129.5,387.4922,125.5,383.4922" style="stroke:#181818;stroke-width:1.0;"/><line style="stroke:#181818;stroke-width:1.0;" x1="123.5" x2="279.5" y1="383.4922" y2="383.4922"/><text fill="#000000" font-family="sans-serif" font-size="13" lengthAdjust="spacing" textLength="101" x="135.5" y="378.4263">ResponseCDDC</text><rect fill="#FEFFDD" height="23" style="stroke:#181818;stroke-width:0.5;" width="46" x="123" y="396.4922"/><text fill="#000000" font-family="sans-serif" font-size="13" lengthAdjust="spacing" textLength="38" x="127" y="412.5591">CDDC</text><polygon fill="#181818" points="268.5,441.7578,278.5,445.7578,268.5,449.7578,272.5,445.7578" style="stroke:#181818;stroke-width:1.0;"/><line style="stroke:#181818;stroke-width:1.0;" x1="118.5" x2="274.5" y1="445.7578" y2="445.7578"/><text fill="#000000" font-family="sans-serif" font-size="13" lengthAdjust="spacing" textLength="89" x="125.5" y="440.6919">RequestMKCs</text><polygon fill="#181818" points="129.5,470.8906,119.5,474.8906,129.5,478.8906,125.5,474.8906" style="stroke:#181818;stroke-width:1.0;"/><line style="stroke:#181818;stroke-width:1.0;" x1="123.5" x2="279.5" y1="474.8906" y2="474.8906"/><text fill="#000000" font-family="sans-serif" font-size="13" lengthAdjust="spacing" textLength="99" x="135.5" y="469.8247">ResponseMKCs</text><rect fill="#FEFFDD" height="23" style="stroke:#181818;stroke-width:0.5;" width="44" x="123" y="487.8906"/><text fill="#000000" font-family="sans-serif" font-size="13" lengthAdjust="spacing" textLength="36" x="127" y="503.9575">MKCs</text><line style="stroke:#181818;stroke-width:1.0;stroke-dasharray:2.0,2.0;" x1="421.5" x2="463.5" y1="552.2891" y2="552.2891"/><line style="stroke:#181818;stroke-width:1.0;stroke-dasharray:2.0,2.0;" x1="463.5" x2="463.5" y1="552.2891" y2="565.2891"/><line style="stroke:#181818;stroke-width:1.0;stroke-dasharray:2.0,2.0;" x1="422.5" x2="463.5" y1="565.2891" y2="565.2891"/><polygon fill="#181818" points="432.5,561.2891,422.5,565.2891,432.5,569.2891,428.5,565.2891" style="stroke:#181818;stroke-width:1.0;"/><text fill="#000000" font-family="sans-serif" font-size="13" lengthAdjust="spacing" textLength="64" x="428.5" y="532.0903">also fetch</text><text fill="#000000" font-family="sans-serif" font-size="13" lengthAdjust="spacing" textLength="115" x="428.5" y="547.2231">issuer documents</text><rect fill="#FEFFDD" height="38" style="stroke:#181818;stroke-width:0.5;" width="46" x="426" y="578.2891"/><text fill="#000000" font-family="sans-serif" font-size="13" lengthAdjust="spacing" textLength="38" x="430" y="594.356">CDDC</text><text fill="#000000" font-family="sans-serif" font-size="13" lengthAdjust="spacing" textLength="36" x="430" y="609.4888">MKCs</text><line style="stroke:#181818;stroke-width:1.0;stroke-dasharray:2.0,2.0;" x1="118.5" x2="160.5" y1="642.6875" y2="642.6875"/><line style="stroke:#181818;stroke-width:1.0;stroke-dasharray:2.0,2.0;" x1="160.5" x2="160.5" y1="642.6875" y2="655.6875"/><line style="stroke:#181818;stroke-width:1.0;stroke-dasharray:2.0,2.0;" x1="119.5" x2="160.5" y1="655.6875" y2="655.6875"/><polygon fill="#181818" points="129.5,651.6875,119.5,655.6875,129.5,659.6875,125.5,655.6875" style="stroke:#181818;stroke-width:1.0;"/><text fill="#000000" font-family="sans-serif" font-size="13" lengthAdjust="spacing" textLength="93" x="125.5" y="637.6216">prepare blinds</text><rect fill="#FEFFDD" height="68" style="stroke:#181818;stroke-width:0.5;" width="109" x="5" y="668.6875"/><text fill="#000000" font-family="sans-serif" font-size="13" lengthAdjust="spacing" textLength="59" x="9" y="684.7544">Payloads</text><text fill="#000000" font-family="sans-serif" font-size="13" lengthAdjust="spacing" textLength="40" x="9" y="699.8872">Blinds</text><text fill="#000000" font-family="sans-serif" font-size="13" lengthAdjust="spacing" textLength="5" x="9" y="715.02">-</text><text fill="#000000" font-family="sans-serif" font-size="13" lengthAdjust="spacing" textLength="101" x="9" y="730.1528">blinding factors</text><polygon fill="#181818" points="268.5,759.3516,278.5,763.3516,268.5,767.3516,272.5,763.3516" style="stroke:#181818;stroke-width:1.0;"/><line style="stroke:#181818;stroke-width:1.0;" x1="118.5" x2="274.5" y1="763.3516" y2="763.3516"/><text fill="#000000" font-family="sans-serif" font-size="13" lengthAdjust="spacing" textLength="81" x="125.5" y="758.2856">RequestMint</text><rect fill="#FEFFDD" height="23" style="stroke:#181818;stroke-width:0.5;" width="48" x="227" y="776.3516"/><text fill="#000000" font-family="sans-serif" font-size="13" lengthAdjust="spacing" textLength="40" x="231" y="792.4185">Blinds</text><line style="stroke:#181818;stroke-width:1.0;stroke-dasharray:2.0,2.0;" x1="280.5" x2="322.5" y1="825.6172" y2="825.6172"/><line style="stroke:#181818;stroke-width:1.0;stroke-dasharray:2.0,2.0;" x1="322.5" x2="322.5" y1="825.6172" y2="838.6172"/><line style="stroke:#181818;stroke-width:1.0;stroke-dasharray:2.0,2.0;" x1="281.5" x2="322.5" y1="838.6172" y2="838.6172"/><polygon fill="#181818" points="291.5,834.6172,281.5,838.6172,291.5,842.6172,287.5,838.6172" style="stroke:#181818;stroke-width:1.0;"/><text fill="#000000" font-family="sans-serif" font-size="13" lengthAdjust="spacing" textLength="70" x="287.5" y="820.5513">sign blinds</text><polygon fill="#181818" points="129.5,863.75,119.5,867.75,129.5,871.75,125.5,867.75" style="stroke:#181818;stroke-width:1.0;"/><line style="stroke:#181818;stroke-width:1.0;" x1="123.5" x2="279.5" y1="867.75" y2="867.75"/><text fill="#000000" font-family="sans-serif" font-size="13" lengthAdjust="spacing" textLength="91" x="135.5" y="862.6841">ResponseMint</text><rect fill="#FEFFDD" height="23" style="stroke:#181818;stroke-width:0.5;" width="110" x="123" y="880.75"/><text fill="#000000" font-family="sans-serif" font-size="13" lengthAdjust="spacing" textLength="102" x="127" y="896.8169">BlindSignatures</text><line style="stroke:#181818;stroke-width:1.0;stroke-dasharray:2.0,2.0;" x1="118.5" x2="160.5" y1="930.0156" y2="930.0156"/><line style="stroke:#181818;stroke-width:1.0;stroke-dasharray:2.0,2.0;" x1="160.5" x2="160.5" y1="930.0156" y2="943.0156"/><line style="stroke:#181818;stroke-width:1.0;stroke-dasharray:2.0,2.0;" x1="119.5" x2="160.5" y1="943.0156" y2="943.0156"/><polygon fill="#181818" points="129.5,939.0156,119.5,943.0156,129.5,947.0156,125.5,943.0156" style="stroke:#181818;stroke-width:1.0;"/><text fill="#000000" font-family="sans-serif" font-size="13" lengthAdjust="spacing" textLength="48" x="125.5" y="924.9497">unblind</text><rect fill="#FEFFDD" height="23" style="stroke:#181818;stroke-width:0.5;" width="44" x="69" y="956.0156"/><text fill="#000000" font-family="sans-serif" font-size="13" lengthAdjust="spacing" textLength="36" x="73" y="972.0825">Coins</text><polygon fill="#181818" points="409.5,1001.2813,419.5,1005.2813,409.5,1009.2813,413.5,1005.2813" style="stroke:#181818;stroke-width:1.0;"/><line style="stroke:#181818;stroke-width:1.0;" x1="118.5" x2="415.5" y1="1005.2813" y2="1005.2813"/><text fill="#000000" font-family="sans-serif" font-size="13" lengthAdjust="spacing" textLength="166" x="125.5" y="1000.2153">transfer, e.g. using Signal</text><rect fill="#FEFFDD" height="23" style="stroke:#181818;stroke-width:0.5;" width="73" x="343" y="1018.2813"/><text fill="#000000" font-family="sans-serif" font-size="13" lengthAdjust="spacing" textLength="65" x="347" y="1034.3481">CoinStack</text><rect fill="#FEFFDD" height="23" style="stroke:#181818;stroke-width:0.5;" width="44" x="426" y="1051.4141"/><text fill="#000000" font-family="sans-serif" font-size="13" lengthAdjust="spacing" textLength="36" x="430" y="1067.481">Coins</text><line style="stroke:#181818;stroke-width:1.0;stroke-dasharray:2.0,2.0;" x1="421.5" x2="463.5" y1="1100.6797" y2="1100.6797"/><line style="stroke:#181818;stroke-width:1.0;stroke-dasharray:2.0,2.0;" x1="463.5" x2="463.5" y1="1100.6797" y2="1113.6797"/><line style="stroke:#181818;stroke-width:1.0;stroke-dasharray:2.0,2.0;" x1="422.5" x2="463.5" y1="1113.6797" y2="1113.6797"/><polygon fill="#181818" points="432.5,1109.6797,422.5,1113.6797,432.5,1117.6797,428.5,1113.6797" style="stroke:#181818;stroke-width:1.0;"/><text fill="#000000" font-family="sans-serif" font-size="13" lengthAdjust="spacing" textLength="56" x="428.5" y="1095.6138">tokenize</text><line style="stroke:#181818;stroke-width:1.0;stroke-dasharray:2.0,2.0;" x1="421.5" x2="463.5" y1="1142.8125" y2="1142.8125"/><line style="stroke:#181818;stroke-width:1.0;stroke-dasharray:2.0,2.0;" x1="463.5" x2="463.5" y1="1142.8125" y2="1155.8125"/><line style="stroke:#181818;stroke-width:1.0;stroke-dasharray:2.0,2.0;" x1="422.5" x2="463.5" y1="1155.8125" y2="1155.8125"/><polygon fill="#181818" points="432.5,1151.8125,422.5,1155.8125,432.5,1159.8125,428.5,1155.8125" style="stroke:#181818;stroke-width:1.0;"/><text fill="#000000" font-family="sans-serif" font-size="13" lengthAdjust="spacing" textLength="93" x="428.5" y="1137.7466">prepare blinds</text><rect fill="#FEFFDD" height="68" style="stroke:#181818;stroke-width:0.5;" width="109" x="426" y="1168.8125"/><text fill="#000000" font-family="sans-serif" font-size="13" lengthAdjust="spacing" textLength="59" x="430" y="1184.8794">Payloads</text><text fill="#000000" font-family="sans-serif" font-size="13" lengthAdjust="spacing" textLength="40" x="430" y="1200.0122">Blinds</text><text fill="#000000" font-family="sans-serif" font-size="13" lengthAdjust="spacing" textLength="5" x="430" y="1215.145">-</text><text fill="#000000" font-family="sans-serif" font-size="13" lengthAdjust="spacing" textLength="101" x="430" y="1230.2778">blinding factors</text><polygon fill="#181818" points="291.5,1259.4766,281.5,1263.4766,291.5,1267.4766,287.5,1263.4766" style="stroke:#181818;stroke-width:1.0;"/><line style="stroke:#181818;stroke-width:1.0;" x1="285.5" x2="420.5" y1="1263.4766" y2="1263.4766"/><text fill="#000000" font-family="sans-serif" font-size="13" lengthAdjust="spacing" textLength="97" x="297.5" y="1258.4106">RequestRenew</text><rect fill="#FEFFDD" height="38" style="stroke:#181818;stroke-width:0.5;" width="48" x="285" y="1276.4766"/><text fill="#000000" font-family="sans-serif" font-size="13" lengthAdjust="spacing" textLength="36" x="289" y="1292.5435">Coins</text><text fill="#000000" font-family="sans-serif" font-size="13" lengthAdjust="spacing" textLength="40" x="289" y="1307.6763">Blinds</text><path d="M242.5,1326.7422 L311.5,1326.7422 L311.5,1333.875 L301.5,1343.875 L242.5,1343.875 L242.5,1326.7422 " fill="#EEEEEE" style="stroke:#000000;stroke-width:1.5;"/><rect fill="none" height="75.3984" style="stroke:#000000;stroke-width:1.5;" width="206" x="242.5" y="1326.7422"/><text fill="#000000" font-family="sans-serif" font-size="13" font-weight="bold" lengthAdjust="spacing" textLength="24" x="257.5" y="1339.8091">opt</text><text fill="#000000" font-family="sans-serif" font-size="11" font-weight="bold" lengthAdjust="spacing" textLength="82" x="326.5" y="1338.9526">[Some Delay]</text><polygon fill="#181818" points="409.5,1361.0078,419.5,1365.0078,409.5,1369.0078,413.5,1365.0078" style="stroke:#181818;stroke-width:1.0;"/><line style="stroke:#181818;stroke-width:1.0;" x1="280.5" x2="415.5" y1="1365.0078" y2="1365.0078"/><text fill="#000000" font-family="sans-serif" font-size="13" lengthAdjust="spacing" textLength="101" x="287.5" y="1359.9419">ResponseDelay</text><polygon fill="#181818" points="291.5,1390.1406,281.5,1394.1406,291.5,1398.1406,287.5,1394.1406" style="stroke:#181818;stroke-width:1.0;"/><line style="stroke:#181818;stroke-width:1.0;" x1="285.5" x2="420.5" y1="1394.1406" y2="1394.1406"/><text fill="#000000" font-family="sans-serif" font-size="13" lengthAdjust="spacing" textLength="106" x="297.5" y="1389.0747">RequestResume</text><line style="stroke:#181818;stroke-width:1.0;stroke-dasharray:2.0,2.0;" x1="280.5" x2="322.5" y1="1430.2734" y2="1430.2734"/><line style="stroke:#181818;stroke-width:1.0;stroke-dasharray:2.0,2.0;" x1="322.5" x2="322.5" y1="1430.2734" y2="1443.2734"/><line style="stroke:#181818;stroke-width:1.0;stroke-dasharray:2.0,2.0;" x1="281.5" x2="322.5" y1="1443.2734" y2="1443.2734"/><polygon fill="#181818" points="291.5,1439.2734,281.5,1443.2734,291.5,1447.2734,287.5,1443.2734" style="stroke:#181818;stroke-width:1.0;"/><text fill="#000000" font-family="sans-serif" font-size="13" lengthAdjust="spacing" textLength="91" x="287.5" y="1425.2075">validate coins</text><line style="stroke:#181818;stroke-width:1.0;stroke-dasharray:2.0,2.0;" x1="280.5" x2="322.5" y1="1472.4063" y2="1472.4063"/><line style="stroke:#181818;stroke-width:1.0;stroke-dasharray:2.0,2.0;" x1="322.5" x2="322.5" y1="1472.4063" y2="1485.4063"/><line style="stroke:#181818;stroke-width:1.0;stroke-dasharray:2.0,2.0;" x1="281.5" x2="322.5" y1="1485.4063" y2="1485.4063"/><polygon fill="#181818" points="291.5,1481.4063,281.5,1485.4063,291.5,1489.4063,287.5,1485.4063" style="stroke:#181818;stroke-width:1.0;"/><text fill="#000000" font-family="sans-serif" font-size="13" lengthAdjust="spacing" textLength="70" x="287.5" y="1467.3403">sign blinds</text><polygon fill="#181818" points="409.5,1510.5391,419.5,1514.5391,409.5,1518.5391,413.5,1514.5391" style="stroke:#181818;stroke-width:1.0;"/><line style="stroke:#181818;stroke-width:1.0;" x1="280.5" x2="415.5" y1="1514.5391" y2="1514.5391"/><text fill="#000000" font-family="sans-serif" font-size="13" lengthAdjust="spacing" textLength="91" x="287.5" y="1509.4731">ResponseMint</text><rect fill="#FEFFDD" height="23" style="stroke:#181818;stroke-width:0.5;" width="110" x="306" y="1527.5391"/><text fill="#000000" font-family="sans-serif" font-size="13" lengthAdjust="spacing" textLength="102" x="310" y="1543.606">BlindSignatures</text><line style="stroke:#181818;stroke-width:1.0;stroke-dasharray:2.0,2.0;" x1="421.5" x2="463.5" y1="1576.8047" y2="1576.8047"/><line style="stroke:#181818;stroke-width:1.0;stroke-dasharray:2.0,2.0;" x1="463.5" x2="463.5" y1="1576.8047" y2="1589.8047"/><line style="stroke:#181818;stroke-width:1.0;stroke-dasharray:2.0,2.0;" x1="422.5" x2="463.5" y1="1589.8047" y2="1589.8047"/><polygon fill="#181818" points="432.5,1585.8047,422.5,1589.8047,432.5,1593.8047,428.5,1589.8047" style="stroke:#181818;stroke-width:1.0;"/><text fill="#000000" font-family="sans-serif" font-size="13" lengthAdjust="spacing" textLength="48" x="428.5" y="1571.7388">unblind</text><rect fill="#FEFFDD" height="23" style="stroke:#181818;stroke-width:0.5;" width="44" x="426" y="1602.8047"/><text fill="#000000" font-family="sans-serif" font-size="13" lengthAdjust="spacing" textLength="36" x="430" y="1618.8716">Coins</text><polygon fill="#181818" points="291.5,1648.0703,281.5,1652.0703,291.5,1656.0703,287.5,1652.0703" style="stroke:#181818;stroke-width:1.0;"/><line style="stroke:#181818;stroke-width:1.0;" x1="285.5" x2="420.5" y1="1652.0703" y2="1652.0703"/><text fill="#000000" font-family="sans-serif" font-size="13" lengthAdjust="spacing" textLength="107" x="297.5" y="1647.0044">RequestRedeem</text><rect fill="#FEFFDD" height="23" style="stroke:#181818;stroke-width:0.5;" width="44" x="285" y="1665.0703"/><text fill="#000000" font-family="sans-serif" font-size="13" lengthAdjust="spacing" textLength="36" x="289" y="1681.1372">Coins</text><polygon fill="#181818" points="409.5,1710.3359,419.5,1714.3359,409.5,1718.3359,413.5,1714.3359" style="stroke:#181818;stroke-width:1.0;"/><line style="stroke:#181818;stroke-width:1.0;" x1="280.5" x2="415.5" y1="1714.3359" y2="1714.3359"/><text fill="#000000" font-family="sans-serif" font-size="13" lengthAdjust="spacing" textLength="117" x="287.5" y="1709.27">ResponseRedeem</text><!--MD5=[0dd8cae40496d394a6008c3c8e68040c]
@startuml
' skinparam backgroundColor transparent

actor Alice as alice
participant "\nIssuer\n" as  issuer
actor Bob as bob

issuer - -> issuer: create CDDC
rnote right of issuer: CDDC
issuer - -> issuer: create MKCs
rnote right of issuer: MKCs


alice->issuer: RequestCDDCSerial
issuer->alice: ResponseCDDCSerial
rnote right of alice: CDD serial

alice->issuer: RequestCDDC
issuer->alice:  ResponseCDDC
rnote right of alice: CDDC

alice->issuer: RequestMKCs
issuer->alice: ResponseMKCs
rnote right of alice: MKCs

bob- ->bob: also fetch\nissuer documents
rnote right of bob: CDDC\nMKCs

alice - -> alice: prepare blinds
rnote left of alice: Payloads\nBlinds\n-\nblinding factors

alice -> issuer: RequestMint
rnote left of issuer: Blinds

issuer - -> issuer: sign blinds

issuer -> alice: ResponseMint
rnote right of alice: BlindSignatures

alice - -> alice: unblind
rnote left of alice: Coins

alice -> bob: transfer, e.g. using Signal
rnote left of bob: CoinStack
rnote right of bob: Coins

bob - -> bob: tokenize

bob - -> bob: prepare blinds
rnote right of bob: Payloads\nBlinds\n-\nblinding factors

bob -> issuer: RequestRenew
rnote right of issuer: Coins\nBlinds

opt Some Delay
    issuer -> bob: ResponseDelay
    bob -> issuer: RequestResume
end

issuer- ->issuer: validate coins
issuer - -> issuer: sign blinds
issuer -> bob: ResponseMint
rnote left of bob: BlindSignatures

bob - -> bob: unblind
rnote right of bob: Coins

bob -> issuer: RequestRedeem
rnote right of issuer: Coins
issuer->bob: ResponseRedeem




@enduml

@startuml

actor Alice as alice
participant "\nIssuer\n" as  issuer
actor Bob as bob

issuer - -> issuer: create CDDC
rnote right of issuer: CDDC
issuer - -> issuer: create MKCs
rnote right of issuer: MKCs


alice->issuer: RequestCDDCSerial
issuer->alice: ResponseCDDCSerial
rnote right of alice: CDD serial

alice->issuer: RequestCDDC
issuer->alice:  ResponseCDDC
rnote right of alice: CDDC

alice->issuer: RequestMKCs
issuer->alice: ResponseMKCs
rnote right of alice: MKCs

bob- ->bob: also fetch\nissuer documents
rnote right of bob: CDDC\nMKCs

alice - -> alice: prepare blinds
rnote left of alice: Payloads\nBlinds\n-\nblinding factors

alice -> issuer: RequestMint
rnote left of issuer: Blinds

issuer - -> issuer: sign blinds

issuer -> alice: ResponseMint
rnote right of alice: BlindSignatures

alice - -> alice: unblind
rnote left of alice: Coins

alice -> bob: transfer, e.g. using Signal
rnote left of bob: CoinStack
rnote right of bob: Coins

bob - -> bob: tokenize

bob - -> bob: prepare blinds
rnote right of bob: Payloads\nBlinds\n-\nblinding factors

bob -> issuer: RequestRenew
rnote right of issuer: Coins\nBlinds

opt Some Delay
    issuer -> bob: ResponseDelay
    bob -> issuer: RequestResume
end

issuer- ->issuer: validate coins
issuer - -> issuer: sign blinds
issuer -> bob: ResponseMint
rnote left of bob: BlindSignatures

bob - -> bob: unblind
rnote right of bob: Coins

bob -> issuer: RequestRedeem
rnote right of issuer: Coins
issuer->bob: ResponseRedeem




@enduml

PlantUML version 1.2022.6(Tue Jun 21 19:34:49 CEST 2022)
(GPL source distribution)
Java Runtime: OpenJDK Runtime Environment
JVM: OpenJDK 64-Bit Server VM
Default Encoding: UTF-8
Language: en
Country: US
--></g></svg>